Description

Sinopse e detalhes

Roy (Nicolas Cage) é um vigarista que sofre de diversas fobias, que o deixam extremamente obsessivo. Ao lado de Frank (Sam Rockwell) ele está planejando um novo golpe, que caso dê certo será bastante lucrativo para ambos. Porém, para desespero de Roy, inesperadamente surge em sua vida sua filha adolescente (Alison Lohman), que ele desconhecia que existia.

Format : Matroska
Format version : Version 2
File size : 571 MiB
Duration : 1h 56mn
Overall bit rate : 687 Kbps
Encoded date : UTC 2013-05-16 17:24:34
Writing application : mkvmerge v5.8.0 ('No Sleep / Pillow') built on Sep 2 2012 15:37:04
Writing library : libebml v1.2.3 + libmatroska v1.3.0

Video
ID : 1
Format : AVC
Format/Info : Advanced Video Codec
Format profile : High@L4.1
Format settings, CABAC : Yes
Format settings, ReFrames : 4 frames
Muxing mode : Header stripping
Codec ID : V_MPEG4/ISO/AVC
Duration : 1h 56mn
Bit rate : 481 Kbps
Width : 720 pixels
Height : 304 pixels
Display aspect ratio : 2.35:1
Frame rate mode : Constant
Frame rate : 23.976 fps
Color space : YUV
Chroma subsampling : 4:2:0
Bit depth : 8 bits
Scan type : Progressive
Bits/(Pixel*Frame) : 0.092
Stream size : 400 MiB (70%)
Writing library : x264 core 130 r2273 b3065e6
Encoding settings : cabac=1 / ref=3 / deblock=1:0:0 / analyse=0x3:0x113 / me=hex / subme=7 / psy=1 / psy_rd=1.00:0.00 / mixed_ref=1 / me_range=16 / chroma_me=1 / trellis=1 / 8x8dct=1 / cqm=0 / deadzone=21,11 / fast_pskip=1 / chroma_qp_offset=-2 / threads=3 / lookahead_threads=1 / sliced_threads=0 / nr=0 / decimate=1 / interlaced=0 / bluray_compat=0 / constrained_intra=0 / bframes=3 / b_pyramid=2 / b_adapt=1 / b_bias=0 / direct=1 / weightb=1 / open_gop=0 / weightp=2 / keyint=240 / keyint_min=23 / scenecut=40 / intra_refresh=0 / rc_lookahead=40 / rc=crf / mbtree=1 / crf=23.0 / qcomp=0.60 / qpmin=0 / qpmax=69 / qpstep=4 / vbv_maxrate=62500 / vbv_bufsize=78125 / crf_max=0.0 / nal_hrd=none / ip_ratio=1.40 / aq=1:1.00
Default : Yes
Forced : No

Audio
ID : 2
Format : AC-3
Format/Info : Audio Coding 3
Format profile : Dolby Digital
Mode extension : CM (complete main)
Format settings, Endianness : Big
Muxing mode : Header stripping
Codec ID : A_AC3
Duration : 1h 56mn
Bit rate mode : Constant
Bit rate : 192 Kbps
Channel(s) : 2 channels
Channel positions : Front: L R
Sampling rate : 48.0 KHz
Bit depth : 16 bits
Compression mode : Lossy
Delay relative to video : 7ms
Stream size : 159 MiB (28%)
Title : by fantasma
Language : Portuguese
Default : Yes
Forced : No

Text #1
ID : 3
Format : VobSub
Muxing mode : zlib
Codec ID : S_VOBSUB
Codec ID/Info : The same subtitle format used on DVDs
Title : por
Language : Portuguese
Default : No
Forced : No

Text #2
ID : 4
Format : VobSub
Muxing mode : zlib
Codec ID : S_VOBSUB
Codec ID/Info : The same subtitle format used on DVDs
Title : spa
Language : Spanish
Default : No
Forced : No

Text #3
ID : 5
Format : VobSub
Muxing mode : zlib
Codec ID : S_VOBSUB
Codec ID/Info : The same subtitle format used on DVDs
Title : spa
Language : Spanish
Default : No
Forced : No

Text #4
ID : 6
Format : VobSub
Muxing mode : zlib
Codec ID : S_VOBSUB
Codec ID/Info : The same subtitle format used on DVDs
Title : eng
Language : English
Default : No
Forced : No

Text #5
ID : 7
Format : VobSub
Muxing mode : zlib
Codec ID : S_VOBSUB
Codec ID/Info : The same subtitle format used on DVDs
Title : eng
Language : English
Default : No
Forced : No

Text #6
ID : 8
Format : UTF-8
Codec ID : S_TEXT/UTF8
Codec ID/Info : UTF-8 Plain Text
Title : Credito
Language : Portuguese
Default : Yes
Forced : No

Menu
00:00:00.000 : en:Chapter 01
00:02:03.500 : en:Chapter 02
00:05:19.967 : en:Chapter 03
00:09:44.634 : en:Chapter 04
00:13:51.168 : en:Chapter 05
00:19:59.002 : en:Chapter 06
00:24:15.135 : en:Chapter 07
00:30:19.802 : en:Chapter 08
00:33:46.835 : en:Chapter 09
00:36:07.302 : en:Chapter 10
00:40:29.469 : en:Chapter 11
00:45:35.337 : en:Chapter 12
00:48:58.637 : en:Chapter 13
00:52:43.837 : en:Chapter 14
00:54:55.337 : en:Chapter 15
00:59:38.804 : en:Chapter 16
01:02:24.504 : en:Chapter 17
01:06:11.971 : en:Chapter 18
01:10:08.004 : en:Chapter 19
01:16:01.838 : en:Chapter 20
01:19:13.338 : en:Chapter 21
01:22:00.005 : en:Chapter 22
01:27:00.639 : en:Chapter 23
01:30:53.139 : en:Chapter 24
01:34:09.639 : en:Chapter 25
01:38:07.139 : en:Chapter 26
01:43:12.139 : en:Chapter 27
01:44:53.007 : en:Chapter 28
01:47:51.007 : en:Chapter 29
01:51:17.841 : en:Chapter 30